<?xml version="1.0" standalone="no"?>
<!DOCTYPE svg PUBLIC "-//W3C//DTD SVG 20010904//EN"
 "http://www.w3.org/TR/2001/REC-SVG-20010904/DTD/svg10.dtd">
<svg version="1.0" xmlns="http://www.w3.org/2000/svg"
 width="250.000000pt" height="250.000000pt" viewBox="0 0 250.000000 250.000000"
 preserveAspectRatio="xMidYMid meet">
<metadata>
Created by potrace 1.15, written by Peter Selinger 2001-2017
</metadata>
<g transform="translate(0.000000,250.000000) scale(0.100000,-0.100000)"
fill="#000000" stroke="none">
<path d="M1090 2275 c-92 -15 -239 -63 -309 -101 -24 -13 -48 -21 -55 -17 -6
3 -8 3 -4 -2 4 -4 -25 -30 -65 -57 -96 -66 -186 -156 -251 -250 -29 -43 -57
-74 -61 -70 -5 4 -5 2 -2 -4 4 -7 -4 -31 -18 -55 -43 -79 -93 -247 -106 -361
-10 -86 -10 -130 0 -215 13 -115 63 -283 106 -362 14 -24 22 -48 18 -55 -3 -6
-3 -8 2 -4 4 4 30 -25 57 -65 66 -96 156 -186 250 -251 43 -29 74 -57 70 -61
-4 -5 -2 -5 4 -2 7 4 31 -4 55 -18 79 -43 247 -93 362 -106 85 -10 129 -10
215 0 114 13 282 63 361 106 24 14 48 22 55 18 6 -3 8 -3 4 2 -4 4 27 32 70
61 94 65 184 155 250 251 27 40 53 69 57 65 5 -4 5 -2 2 4 -4 7 4 31 18 55 43
79 93 247 106 362 10 85 10 129 0 215 -13 114 -63 282 -106 361 -14 24 -22 48
-18 55 3 6 3 8 -2 4 -4 -4 -32 27 -61 70 -65 94 -155 184 -251 250 -40 27 -69
53 -65 57 4 5 2 5 -4 2 -7 -4 -31 4 -55 17 -73 40 -218 86 -319 102 -114 17
-196 17 -310 -1z m338 -161 c314 -64 572 -304 668 -619 25 -81 28 -105 28
-240 0 -122 -4 -164 -22 -228 -49 -177 -161 -347 -306 -463 -427 -341 -1056
-214 -1320 267 -125 229 -141 518 -41 752 54 128 95 187 195 287 128 128 273
209 435 244 94 20 267 20 363 0z"/>
<path d="M1072 1910 c-227 -60 -426 -259 -488 -490 -23 -88 -23 -254 0 -340
51 -186 193 -359 366 -444 98 -48 208 -76 300 -76 92 0 202 28 300 76 80 39
109 61 180 133 142 144 200 280 200 473 0 204 -58 347 -200 488 -98 98 -184
149 -306 180 -102 26 -252 26 -352 0z m460 -336 c4 -3 -14 -34 -39 -70 l-45
-64 -54 0 c-45 0 -54 -3 -54 -17 -1 -17 -1 -17 -11 0 -9 15 -32 17 -252 17
-175 1 -246 4 -257 13 -8 7 -32 38 -53 70 l-37 57 398 0 c219 0 401 -3 404 -6z
m218 -1 c0 -3 -28 -49 -61 -102 -34 -53 -76 -118 -94 -146 -17 -27 -67 -104
-110 -170 -43 -66 -89 -137 -102 -157 -51 -83 -71 -115 -102 -165 -35 -56 -47
-58 -72 -15 -9 15 -26 43 -37 63 l-22 35 44 67 c42 64 220 343 241 378 6 9 31
47 56 85 25 38 54 84 64 102 l19 32 88 0 c48 0 88 -3 88 -7z m-365 -213 c4 -6
-11 -38 -32 -70 -44 -68 -24 -63 -238 -61 l-150 2 -25 29 c-14 16 -35 47 -47
68 l-22 38 254 3 c178 2 255 -1 260 -9z m-148 -211 c9 -9 -3 -33 -44 -95 -31
-46 -59 -84 -64 -84 -4 0 -32 39 -63 88 l-55 87 102 6 c56 3 104 6 108 7 3 1
10 -3 16 -9z"/>
</g>
</svg>

